<svg id="Capa_1" enable-background="new 0 0 512 512" height="512" viewBox="0 0 512 512" width="512" xmlns="http://www.w3.org/2000/svg"><g><path d="m210.428 299.778c7.972 0 14.457-6.486 14.457-14.457v-78.285c0-7.972-6.486-14.457-14.457-14.457h-153.944c-7.972 0-14.457 6.486-14.457 14.457v78.285c0 7.972 6.486 14.457 14.457 14.457zm-153.445-92.244h152.947v77.288h-152.947z"/><path d="m81.822 221.136c-4.13 0-7.478 3.348-7.478 7.478v37.147c0 4.13 3.348 7.478 7.478 7.478s7.478-3.348 7.478-7.478v-37.147c0-4.129-3.348-7.478-7.478-7.478z"/><path d="m112.058 221.136c-4.13 0-7.478 3.348-7.478 7.478v37.147c0 4.13 3.348 7.478 7.478 7.478s7.478-3.348 7.478-7.478v-37.147c0-4.129-3.347-7.478-7.478-7.478z"/><path d="m136.723 221.136c-4.13 0-7.478 3.348-7.478 7.478v37.147c0 4.13 3.348 7.478 7.478 7.478s7.478-3.348 7.478-7.478v-37.147c0-4.129-3.348-7.478-7.478-7.478z"/><path d="m183.959 221.136c-4.13 0-7.478 3.348-7.478 7.478v37.147c0 4.13 3.348 7.478 7.478 7.478s7.478-3.348 7.478-7.478v-37.147c0-4.129-3.348-7.478-7.478-7.478z"/><path d="m440.828 231.778v-150.193c0-12.37-10.064-22.434-22.434-22.434h-395.96c-12.37-.001-22.434 10.063-22.434 22.434v201.105c0 4.13 3.348 7.478 7.478 7.478s7.478-3.348 7.478-7.478v-201.105c0-4.124 3.354-7.478 7.478-7.478h149.731v62.578c0 3.801 2.259 7.221 5.754 8.712l5.748 2.453c3.606 1.539 7.743 1.539 11.348 0l8.347-3.561 8.343 3.56c3.607 1.539 7.745 1.54 11.349 0l8.344-3.56 8.345 3.561c3.606 1.539 7.74 1.539 11.349.001l5.805-2.477c3.495-1.492 5.753-4.912 5.753-8.712v-62.555h42.503v24.016c0 4.13 3.348 7.478 7.478 7.478s7.478-3.348 7.478-7.478v-24.016h98.286c4.124 0 7.478 3.354 7.478 7.478v145.192c-9.185-2.374-18.812-3.638-28.728-3.638-29.615 0-56.646 11.268-77.036 29.74v-118.27c0-4.13-3.348-7.478-7.478-7.478s-7.478 3.348-7.478 7.478v134.688c-14.354 19.172-22.863 42.959-22.863 68.697 0 6.503.552 12.879 1.595 19.091h-261.451c-4.124 0-7.478-3.354-7.478-7.478v-31.116c0-4.13-3.348-7.478-7.478-7.478s-7.478 3.348-7.478 7.478v31.116c0 12.37 10.064 22.434 22.434 22.434h265.006c14.543 46.761 58.222 80.809 109.704 80.809 23.015 0 45.223-6.784 64.221-19.62 3.423-2.312 4.322-6.961 2.011-10.383s-6.96-4.321-10.383-2.01c-16.517 11.159-35.829 17.057-55.849 17.057-55.085 0-99.9-44.815-99.9-99.9s44.814-99.9 99.9-99.9 99.9 44.815 99.9 99.9c0 22.293-7.18 43.38-20.764 60.98-2.523 3.27-1.918 7.966 1.351 10.489 3.268 2.523 7.965 1.919 10.489-1.351 15.622-20.242 23.88-44.488 23.88-70.118 0-47.873-29.445-88.992-71.172-106.216zm-194.483-98.163-.055.024c-.557.238-1.186.238-1.743 0l-7.474-3.189c-3.625-1.547-7.724-1.547-11.349 0l-8.344 3.56-8.344-3.56c-3.625-1.547-7.725-1.547-11.351 0l-7.473 3.189c-.557.238-1.187.238-1.743 0-.818-.349-1.348-1.153-1.348-2.042v-57.49h60.572v57.467c0 .889-.53 1.692-1.348 2.041z"/><path d="m347.747 406.573c4.13 0 7.478-3.348 7.478-7.478v-10.33c11.644 9.403 26.03 14.521 41.207 14.521 17.561 0 34.071-6.839 46.488-19.256 12.417-12.418 19.256-28.927 19.256-46.488 0-14.949-4.972-29.127-14.107-40.677v-25.738c0-4.13-3.348-7.478-7.478-7.478s-7.478 3.348-7.478 7.478v11.84c-10.755-7.261-23.417-11.168-36.681-11.168-17.561 0-34.07 6.838-46.487 19.256-12.417 12.417-19.256 28.927-19.256 46.487 0 12.259 3.343 24.001 9.58 34.202v27.351c0 4.13 3.347 7.478 7.478 7.478zm12.774-104.943c9.592-9.592 22.345-14.875 35.911-14.875 8.759 0 17.174 2.214 24.623 6.357h-9.928c-4.13 0-7.478 3.348-7.478 7.478s3.348 7.478 7.478 7.478h26.663c6.119 8.547 9.43 18.753 9.43 29.474 0 13.566-5.283 26.32-14.876 35.912-9.592 9.592-22.346 14.875-35.912 14.875-11.726 0-22.841-3.955-31.836-11.22h12.614c4.13 0 7.478-3.348 7.478-7.478s-3.348-7.478-7.478-7.478h-25.215c-4.139-7.447-6.351-15.857-6.351-24.611.001-13.565 5.284-26.319 14.877-35.912z"/></g></svg>