<svg id="Layer_3" enable-background="new 0 0 64 64" height="512" viewBox="0 0 64 64" width="512" xmlns="http://www.w3.org/2000/svg"><g><circle cx="32" cy="32" fill="#669e4f" r="30"/><circle cx="32" cy="32" fill="#fff" r="26"/><path d="m30.707 43.293 31.293-31.293-3-3-30 30-10-10-3 3 11.293 11.293c.453.453 1.067.707 1.707.707.64 0 1.254-.254 1.707-.707z" fill="#f5b953"/><g><g><path d="m32 59v-2c.322 0 .643-.006.962-.019l.076 1.999c-.345.013-.69.02-1.038.02z" fill="#4472b2"/></g><g><path d="m35.153 58.817-.23-1.986c.649-.076 1.302-.178 1.938-.304l.389 1.962c-.688.136-1.394.247-2.097.328zm4.16-.82-.541-1.926c.63-.177 1.258-.38 1.867-.605l.693 1.876c-.658.243-1.338.464-2.019.655zm3.981-1.465-.838-1.816c.596-.274 1.185-.575 1.75-.892l.979 1.744c-.612.343-1.248.667-1.891.964zm3.698-2.074-1.111-1.662c.538-.36 1.073-.749 1.591-1.156l1.236 1.571c-.557.438-1.135.858-1.716 1.247zm3.329-2.625-1.357-1.469c.479-.444.947-.911 1.391-1.389l1.467 1.358c-.478.516-.982 1.021-1.501 1.5zm2.879-3.111-1.568-1.24c.406-.514.795-1.048 1.155-1.587l1.662 1.111c-.389.583-.809 1.16-1.249 1.716zm2.359-3.522-1.744-.98c.316-.562.617-1.151.895-1.749l1.814.84c-.299.646-.624 1.281-.965 1.889zm1.779-3.849-1.877-.691c.227-.615.431-1.244.606-1.867l1.926.542c-.19.673-.41 1.352-.655 2.016zm1.147-4.08-1.961-.39c.127-.642.229-1.294.305-1.938l1.986.23c-.081.698-.191 1.404-.33 2.098z" fill="#4472b2"/></g><g><path d="m58.98 33.038-1.998-.076c.012-.319.018-.64.018-.962h2c0 .348-.006.694-.02 1.038z" fill="#4472b2"/></g></g><g><g><path d="m31.038 7.019-.076-1.999c.345-.013.69-.02 1.038-.02v2c-.322 0-.643.006-.962.019z" fill="#4472b2"/></g><g><path d="m7.171 29.057-1.986-.23c.081-.697.191-1.403.33-2.098l1.961.39c-.127.641-.23 1.294-.305 1.938zm.762-3.849-1.926-.542c.19-.674.41-1.353.655-2.017l1.877.691c-.227.616-.431 1.244-.606 1.868zm1.358-3.679-1.814-.84c.298-.646.623-1.281.964-1.889l1.744.98c-.316.563-.617 1.151-.894 1.749zm1.922-3.424-1.662-1.111c.39-.583.81-1.16 1.249-1.716l1.568 1.24c-.406.515-.795 1.048-1.155 1.587zm2.433-3.08-1.467-1.358c.478-.516.981-1.021 1.5-1.5l1.357 1.469c-.479.444-.947.911-1.39 1.389zm2.882-2.664-1.236-1.571c.557-.439 1.135-.858 1.716-1.247l1.111 1.662c-.538.36-1.073.749-1.591 1.156zm3.266-2.184-.979-1.744c.611-.343 1.248-.667 1.891-.964l.838 1.816c-.596.274-1.185.574-1.75.892zm3.566-1.643-.693-1.876c.659-.244 1.339-.464 2.02-.655l.541 1.926c-.63.176-1.258.38-1.868.605zm3.779-1.061-.389-1.962c.688-.136 1.394-.247 2.097-.328l.23 1.986c-.649.076-1.302.178-1.938.304z" fill="#4472b2"/></g><g><path d="m7 32h-2c0-.348.006-.694.02-1.038l1.998.076c-.012.319-.018.64-.018.962z" fill="#4472b2"/></g></g></g></svg>