<svg xmlns="http://www.w3.org/2000/svg" xmlns:xlink="http://www.w3.org/1999/xlink" viewBox="0 0 19 22.01"><defs><style>.cls-1{font-size:3.68px;fill:#4dbfeb;font-family:AdobeArabic-Regular, Adobe Arabic;}</style></defs><title>Asset 1</title><g id="Layer_2" data-name="Layer 2"><g id="Layer_1-2" data-name="Layer 1"><image width="2813" height="1654" transform="translate(1.04 4.54) scale(0.01 0.01)" xlink:href="../bill2.PNG"/><path d="M19,4.43l-.11-.12-.08-.07L14.57,0V.06a.46.46,0,0,0-.21,0H1.5A1.51,1.51,0,0,0,0,1.51v19A1.5,1.5,0,0,0,1.5,22h16a1.5,1.5,0,0,0,1.5-1.5V4.64a.52.52,0,0,0,0-.21ZM15.47,2.17l1.37,1.36H15.75a.27.27,0,0,1-.28-.27ZM18,4.64V20.51a.48.48,0,0,1-.5.5H1.5a.48.48,0,0,1-.5-.5v-19A.49.49,0,0,1,1.5,1H14.36a.46.46,0,0,0,.21,0V3.26a1.19,1.19,0,0,0,1.18,1.17H18A.52.52,0,0,0,18,4.64Z"/><text/><text class="cls-1" transform="translate(3.51 4.59) scale(1.95 1)">ضبق</text></g></g></svg>