<svg xmlns="http://www.w3.org/2000/svg" width="32" height="32" viewBox="0 0 32 32"><g transform="translate(55.96 -1358.804)"><path fill="#576d7e" style="isolation:auto;mix-blend-mode:normal" d="m -42.708466,1376.8575 -7.102454,7.1011 -0.707408,-0.7082 -1.767209,2.4753 1.413802,1.4127 2.47462,-1.7671 -0.706904,-0.7063 7.102454,-7.1012 z" color="#000" overflow="visible"/><rect width="2" height="4" x="-1003.827" y="-945.884" fill="#f05542" color="#000" overflow="visible" style="isolation:auto;mix-blend-mode:normal" rx="1" ry="1" transform="scale(1 -1) rotate(45)"/><rect width="2" height="4" x="-1002.827" y="-945.884" fill="#f05542" color="#000" overflow="visible" rx="0" ry="0" transform="scale(1 -1) rotate(45)" style="isolation:auto;mix-blend-mode:normal"/><rect width="16" height="6" x="-1001.827" y="-946.884" fill="#f05542" color="#000" overflow="visible" style="isolation:auto;mix-blend-mode:normal" rx="1" ry="1" transform="scale(1 -1) rotate(45)"/><path fill="none" stroke="#f17f53" d="M-40.264512 1376.5324l11.313716-11.3137M-41.678725 1375.1182l11.313715-11.3137"/><path fill="#4bbfeb" style="isolation:auto;mix-blend-mode:normal" d="m -37.172389,1363.471 -0.876953,2.1797 a 9.450549,9.4505491 0 0 0 -3.166015,0.023 l -0.916016,-2.1504 -3.863281,1.6485 0.919922,2.1543 a 9.450549,9.4505491 0 0 0 -2.214844,2.2617 l -2.177734,-0.875 -1.566407,3.8965 2.179688,0.8769 a 9.450549,9.4505491 0 0 0 0.02344,3.166 l -2.150391,0.918 1.646485,3.8633 2.15625,-0.9199 a 9.450549,9.4505491 0 0 0 2.261718,2.2148 l -0.875,2.1758 3.896484,1.5684 0.876953,-2.1817 a 9.450549,9.4505491 0 0 0 3.166016,-0.023 l 0.916016,2.1504 3.863281,-1.6465 -0.919922,-2.1563 a 9.450549,9.4505491 0 0 0 2.214844,-2.2617 l 2.175781,0.875 1.568359,-3.8965 -2.179687,-0.8769 a 9.450549,9.4505491 0 0 0 -0.02344,-3.166 l 2.150394,-0.9161 -1.550781,-3.6406 -3.855469,3.8555 a 6.5,6.5 0 0 1 0.458984,2.3828 6.5,6.5 0 0 1 -6.5,6.5 6.5,6.5 0 0 1 -6.5,-6.5 6.5,6.5 0 0 1 6.5,-6.5 6.5,6.5 0 0 1 1.490235,0.1836 l 3.947265,-3.9473 -3.076172,-1.2363 z" color="#000" overflow="visible"/></g></svg>